<?xml version="1.0" standalone="no"?>
<!DOCTYPE svg PUBLIC "-//W3C//DTD SVG 20010904//EN"
 "http://www.w3.org/TR/2001/REC-SVG-20010904/DTD/svg10.dtd">
<svg version="1.0" xmlns="http://www.w3.org/2000/svg"
 width="292.000000pt" height="54.000000pt" viewBox="0 0 292.000000 54.000000"
 preserveAspectRatio="xMidYMid meet">
<metadata>
Created by potrace 1.10, written by Peter Selinger 2001-2011
</metadata>
<g transform="translate(0.000000,54.000000) scale(0.100000,-0.100000)"
fill="#000000" stroke="none">
<path d="M367 514 c-27 -14 -29 -20 -25 -64 3 -48 3 -49 -31 -55 -28 -5 -32
-10 -28 -30 3 -18 -1 -26 -14 -30 -17 -6 -27 -25 -13 -25 20 0 44 24 44 45 0
20 5 25 25 25 17 0 29 -7 35 -22 12 -31 12 -15 0 61 -10 56 -9 65 7 77 10 7
21 14 25 14 4 0 9 -42 11 -92 l3 -93 2 93 c1 50 5 92 10 92 4 0 17 -7 29 -15
18 -12 21 -22 16 -50 -5 -28 -2 -35 11 -35 10 0 14 -5 11 -10 -3 -6 0 -13 8
-16 9 -3 13 -15 10 -32 -1 -15 0 -21 3 -14 3 6 19 12 35 12 18 0 28 -4 24 -10
-3 -5 -1 -10 5 -10 25 0 4 35 -23 38 -15 2 -27 7 -27 11 0 4 -10 18 -22 31
-15 16 -21 34 -20 55 3 27 -2 33 -33 48 -43 20 -42 20 -78 1z"/>
<path d="M778 388 c7 -7 12 -41 12 -81 0 -91 9 -107 64 -107 26 0 48 6 56 15
7 8 15 53 19 100 l7 85 -25 0 c-19 0 -22 -3 -13 -12 18 -18 16 -143 -4 -162
-18 -19 -45 -21 -62 -4 -16 16 -16 150 0 166 9 9 3 12 -27 12 -30 0 -36 -3
-27 -12z"/>
<path d="M968 393 c8 -3 12 -32 12 -93 0 -61 -4 -90 -12 -93 -7 -3 4 -6 24 -6
36 -1 37 0 28 25 -17 44 -13 66 13 62 16 -2 26 -14 35 -45 l13 -41 93 -1 c95
-1 105 2 119 42 5 12 -1 26 -17 42 -20 20 -22 26 -10 36 20 17 17 57 -5 69
-11 5 -44 10 -73 9 -29 0 -47 -3 -40 -6 8 -3 12 -32 12 -93 l0 -89 -27 3 c-20
2 -29 10 -34 30 -4 15 -12 33 -18 40 -7 9 -5 17 9 29 50 42 10 87 -76 86 -32
0 -53 -3 -46 -6z m91 -12 c12 -8 19 -56 9 -66 -2 -3 -15 -6 -29 -7 -21 -3 -24
1 -25 32 0 19 1 38 3 43 6 9 25 9 42 -2z m181 -6 c20 -24 4 -65 -25 -65 -27 0
-28 2 -19 49 7 33 24 40 44 16z m18 -120 c4 -29 -10 -45 -39 -45 -11 0 -18 12
-22 37 -8 46 -3 53 31 44 20 -5 28 -15 30 -36z"/>
<path d="M1380 388 c0 -17 -58 -158 -72 -175 -8 -10 -3 -13 23 -13 24 0 30 3
20 9 -9 6 -11 18 -7 35 5 22 12 26 40 26 28 0 35 -4 40 -25 4 -14 4 -30 1 -35
-4 -6 7 -10 24 -10 29 0 29 0 15 29 -8 16 -25 60 -38 97 -22 63 -46 95 -46 62z
m24 -85 c6 -20 4 -23 -18 -23 -30 0 -29 -2 -15 40 12 34 19 30 33 -17z"/>
<path d="M1498 393 c8 -3 12 -32 12 -93 0 -61 -4 -90 -12 -93 -7 -3 3 -6 22
-6 19 0 30 3 23 7 -11 7 -23 152 -13 152 3 0 27 -36 54 -80 27 -44 52 -80 57
-80 5 0 9 40 9 88 0 55 4 92 12 100 9 9 4 12 -22 12 -19 0 -30 -4 -24 -8 6 -4
13 -36 16 -70 4 -63 4 -63 -13 -40 -10 12 -30 44 -46 70 -24 40 -33 48 -58 47
-16 0 -24 -3 -17 -6z"/>
<path d="M1698 388 c17 -17 16 -175 0 -181 -7 -3 22 -6 65 -6 76 -1 77 -1 77
24 0 30 -16 33 -23 5 -4 -15 -14 -20 -41 -20 -35 0 -36 1 -36 40 0 43 20 55
39 23 8 -14 10 -9 11 26 l0 43 -19 -23 c-17 -21 -20 -22 -26 -7 -4 9 -5 29 -3
45 3 24 8 28 33 28 21 0 33 -7 42 -25 l13 -25 0 33 0 32 -72 0 c-56 0 -69 -3
-60 -12z"/>
<path d="M1882 388 c-7 -7 -12 -25 -12 -40 0 -21 9 -34 40 -54 41 -27 59 -59
42 -76 -16 -16 -56 -5 -67 20 -14 31 -25 28 -25 -8 0 -30 1 -30 55 -30 49 0
57 3 67 24 15 34 6 51 -47 88 -33 23 -45 38 -43 53 4 29 50 27 63 -2 13 -31
25 -29 25 5 0 27 -3 29 -43 30 -24 1 -48 -3 -55 -10z"/>
<path d="M2007 393 c-10 -9 -9 -53 1 -53 4 0 12 10 17 22 6 13 18 24 28 26 15
3 17 -6 17 -87 0 -77 -2 -90 -17 -94 -10 -3 5 -5 32 -6 38 0 46 2 33 10 -15 8
-18 25 -18 94 0 47 4 85 9 85 23 0 41 -14 41 -31 0 -10 5 -19 10 -19 6 0 10
14 10 30 l0 30 -78 0 c-43 0 -82 -3 -85 -7z"/>
<path d="M2221 313 c-19 -49 -38 -94 -44 -100 -7 -10 -1 -13 24 -13 28 1 31 3
17 11 -28 16 -3 59 34 59 35 0 63 -45 37 -61 -10 -6 -3 -9 23 -9 l36 0 -18 38
c-9 20 -28 65 -41 100 -13 34 -26 62 -29 62 -3 0 -21 -39 -39 -87z m48 -3 c9
-28 8 -30 -15 -30 -26 0 -27 3 -18 38 9 30 20 28 33 -8z"/>
<path d="M2350 370 c0 -36 11 -39 25 -8 6 13 18 24 28 26 15 3 17 -6 17 -87 0
-77 -2 -90 -17 -94 -10 -3 5 -5 32 -6 38 0 46 2 33 10 -15 8 -18 25 -18 94 0
47 4 85 9 85 23 0 41 -14 41 -31 0 -10 5 -19 10 -19 6 0 10 14 10 30 l0 30
-85 0 -85 0 0 -30z"/>
<path d="M2538 393 c8 -3 12 -32 12 -93 0 -61 -4 -90 -12 -93 -7 -3 20 -6 60
-6 l72 -1 -1 28 c0 26 -1 26 -9 5 -7 -17 -18 -23 -40 -23 -28 0 -30 2 -30 40
0 29 4 40 15 40 8 0 15 -7 15 -15 0 -8 5 -15 10 -15 6 0 10 18 10 40 0 22 -4
40 -10 40 -5 0 -10 -6 -10 -14 0 -8 -7 -16 -15 -20 -12 -4 -15 4 -15 40 0 43
1 45 27 42 17 -2 32 -12 40 -28 l13 -25 0 33 0 32 -72 -1 c-40 0 -67 -3 -60
-6z"/>
<path d="M114 364 c1 -21 10 -31 44 -45 23 -10 42 -24 42 -31 0 -7 14 -26 30
-43 17 -16 40 -40 53 -52 26 -26 104 -56 112 -43 3 5 0 12 -6 16 -6 4 -9 19
-5 36 4 22 2 30 -12 34 -9 3 -41 17 -71 32 -29 15 -57 26 -62 24 -5 -1 -9 3
-9 9 0 5 -4 8 -10 4 -5 -3 -30 15 -56 40 -26 25 -49 45 -50 45 -1 0 -1 -12 0
-26z m221 -130 c20 -8 33 -19 30 -24 -4 -6 -16 -3 -31 6 -13 9 -27 15 -29 12
-3 -3 11 -13 30 -24 39 -20 45 -34 16 -34 -26 0 -73 40 -67 56 3 8 0 14 -7 14
-7 0 -23 7 -36 16 -17 13 -20 19 -10 25 8 4 24 0 40 -12 15 -11 44 -26 64 -35z"/>
<path d="M667 349 c-21 -22 -46 -39 -55 -39 -21 -1 -152 -80 -132 -80 9 0 32
12 53 26 21 14 50 27 65 30 l27 4 -30 -25 c-16 -14 -36 -25 -43 -25 -7 0 -11
-4 -7 -9 7 -13 -45 -61 -67 -61 -24 0 -23 17 1 25 23 7 49 35 33 35 -6 0 -17
-7 -26 -15 -8 -8 -19 -15 -25 -15 -10 0 -31 -61 -31 -93 0 -12 -4 -16 -12 -11
-8 5 -7 1 2 -10 8 -10 16 -14 18 -8 2 6 35 20 73 33 70 23 82 32 149 119 11
14 31 39 45 57 18 22 21 33 13 35 -10 4 -10 9 2 23 14 17 13 18 -3 12 -15 -6
-16 -4 -7 13 16 30 0 22 -43 -21z m14 -36 c-11 -4 -11 -7 0 -14 9 -5 6 -11
-14 -20 -14 -6 -24 -16 -21 -21 3 -5 -6 -21 -20 -35 -14 -14 -26 -32 -26 -39
0 -14 -39 -44 -62 -48 -7 -1 -22 -7 -34 -13 -26 -15 -59 -10 -59 8 0 7 15 18
33 23 19 5 47 22 62 38 16 15 33 28 39 28 6 0 11 7 11 15 0 7 6 18 13 22 7 4
20 20 30 36 11 17 26 27 40 26 13 0 16 -3 8 -6z"/>
<path d="M124 288 c115 -147 119 -152 182 -172 33 -11 67 -26 76 -34 15 -13
17 -11 16 17 -1 19 -5 28 -12 23 -17 -10 -39 -12 -51 -3 -5 5 -23 11 -38 15
-15 4 -25 11 -22 16 3 6 -1 7 -10 4 -11 -5 -14 -2 -9 12 4 14 3 16 -4 5 -12
-16 -27 3 -16 21 5 8 2 9 -9 5 -12 -5 -17 -1 -17 12 0 10 -7 21 -15 25 -8 3
-15 12 -15 19 0 8 -10 22 -22 31 -13 9 -16 14 -8 10 13 -7 13 -5 1 9 -7 9 -22
17 -33 17 -18 0 -18 -2 6 -32z"/>
<path d="M405 236 c16 -12 17 -16 6 -30 -18 -21 -6 -20 23 1 l23 17 -25 13
c-33 17 -51 17 -27 -1z"/>
<path d="M352 81 c-10 -6 -4 -16 23 -40 l36 -31 28 19 c44 31 54 48 36 55 -9
3 -15 0 -15 -8 0 -8 -10 -20 -23 -29 -21 -13 -25 -13 -50 5 -15 11 -25 24 -21
29 6 11 3 11 -14 0z"/>
</g>
</svg>
