<?xml version="1.0" standalone="no"?>
<!DOCTYPE svg PUBLIC "-//W3C//DTD SVG 20010904//EN"
 "http://www.w3.org/TR/2001/REC-SVG-20010904/DTD/svg10.dtd">
<svg version="1.0" xmlns="http://www.w3.org/2000/svg"
 width="300.000000pt" height="80.000000pt" viewBox="0 0 300.000000 80.000000"
 preserveAspectRatio="xMidYMid meet">
<metadata>
Created by potrace 1.10, written by Peter Selinger 2001-2011
</metadata>
<g transform="translate(0.000000,80.000000) scale(0.100000,-0.100000)"
fill="#000000" stroke="none">
<path d="M1075 751 c-47 -20 -55 -41 -59 -172 -4 -149 -1 -171 32 -204 21 -22
34 -25 89 -25 58 0 68 3 94 29 25 25 29 37 29 81 0 46 -2 51 -15 40 -8 -7 -15
-29 -15 -50 0 -52 -23 -70 -93 -70 -87 0 -92 8 -95 171 l-3 136 28 23 c23 18
37 21 82 18 47 -4 58 -10 82 -39 22 -26 29 -30 29 -16 0 29 -18 56 -50 72 -31
16 -102 19 -135 6z"/>
<path d="M1103 673 c-80 -70 -39 -193 64 -193 43 0 93 55 93 103 0 54 -49 107
-100 107 -21 0 -45 -8 -57 -17z m98 -73 c11 -44 -39 -78 -69 -48 -13 13 -16
60 -5 72 4 4 21 6 37 4 23 -2 32 -9 37 -28z"/>
<path d="M679 651 c-20 -20 -29 -39 -29 -61 0 -66 74 -107 144 -80 21 8 26 16
26 45 0 31 -3 35 -25 35 -20 0 -24 -5 -22 -22 3 -31 -33 -36 -57 -9 -38 42 17
106 60 70 12 -10 18 -9 32 5 16 16 16 18 -2 32 -34 25 -94 18 -127 -15z"/>
<path d="M850 590 l0 -90 75 0 c68 0 75 2 75 20 0 17 -7 20 -50 20 -38 0 -50
4 -50 15 0 11 11 15 40 15 33 0 40 3 40 20 0 17 -7 20 -40 20 -29 0 -40 4 -40
15 0 11 12 15 45 15 38 0 45 3 45 20 0 18 -7 20 -70 20 l-70 0 0 -90z"/>
<path d="M1337 669 c-31 -18 -48 -72 -36 -108 19 -55 95 -78 139 -43 20 16 20
19 7 31 -12 9 -21 10 -36 1 -33 -17 -63 4 -59 42 4 40 30 58 59 40 18 -12 24
-11 37 2 15 14 14 17 -3 31 -23 17 -82 19 -108 4z"/>
<path d="M1480 590 l0 -90 75 0 c68 0 75 2 75 20 0 17 -7 20 -50 20 -38 0 -50
4 -50 15 0 11 12 15 45 15 38 0 45 3 45 20 0 17 -7 20 -45 20 -33 0 -45 4 -45
15 0 11 12 15 50 15 43 0 50 3 50 20 0 18 -7 20 -75 20 l-75 0 0 -90z"/>
<path d="M1650 590 c0 -89 0 -90 24 -90 23 0 25 4 28 52 l3 51 35 -51 c25 -37
42 -52 58 -52 21 0 22 3 22 90 l0 90 -26 0 c-25 0 -26 -1 -19 -50 4 -27 5 -50
2 -50 -3 0 -22 23 -42 50 -26 36 -43 50 -61 50 -24 0 -24 -2 -24 -90z"/>
<path d="M1840 660 c0 -15 7 -20 25 -20 24 0 25 -2 25 -70 0 -68 1 -70 25 -70
24 0 25 2 25 70 0 68 1 70 25 70 18 0 25 5 25 20 0 18 -7 20 -75 20 -68 0 -75
-2 -75 -20z"/>
<path d="M2010 590 l0 -90 75 0 c68 0 75 2 75 20 0 17 -7 20 -50 20 -38 0 -50
4 -50 15 0 11 12 15 45 15 38 0 45 3 45 20 0 17 -7 20 -45 20 -33 0 -45 4 -45
15 0 11 12 15 50 15 43 0 50 3 50 20 0 18 -7 20 -75 20 l-75 0 0 -90z"/>
<path d="M2185 590 l0 -90 29 0 c25 0 28 3 24 25 -4 19 -1 25 12 25 9 0 22
-11 28 -25 9 -19 19 -25 42 -25 l31 0 -20 29 c-18 25 -19 30 -6 41 8 7 15 27
15 46 0 45 -29 64 -100 64 l-55 0 0 -90z m105 25 c0 -21 -5 -25 -27 -25 -23 0
-28 4 -28 25 0 21 5 25 28 25 22 0 27 -4 27 -25z"/>
<path d="M2310 400 c0 -47 3 -60 15 -60 12 0 15 13 15 60 0 47 -3 60 -15 60
-12 0 -15 -13 -15 -60z"/>
<path d="M1420 384 c0 -32 4 -44 15 -44 10 0 15 10 15 30 0 20 5 30 15 30 10
0 15 -10 15 -30 0 -20 5 -30 15 -30 10 0 15 10 15 34 0 40 -14 53 -57 54 -32
1 -33 0 -33 -44z"/>
<path d="M1590 390 c25 -48 25 -46 -1 -53 -24 -7 -16 -27 10 -27 22 0 34 14
49 55 5 17 13 38 17 48 5 12 2 17 -8 17 -8 0 -20 -12 -25 -27 l-10 -28 -7 28
c-5 17 -14 27 -26 27 -19 0 -19 -1 1 -40z"/>
<path d="M1747 424 c-13 -13 -7 -44 7 -44 8 0 18 -5 22 -12 5 -8 0 -9 -14 -6
-26 7 -41 -9 -18 -18 24 -9 66 4 66 21 0 9 -11 20 -25 25 -29 11 -33 23 -7 18
11 -2 20 2 21 7 2 12 -41 19 -52 9z"/>
<path d="M1885 421 c-7 -12 12 -24 24 -16 5 3 12 1 16 -5 4 -6 -5 -10 -20 -10
-22 0 -26 -4 -23 -22 2 -19 10 -23 41 -25 37 -2 37 -2 37 36 0 26 -5 41 -16
45 -23 9 -52 7 -59 -3z"/>
<path d="M2140 369 c0 -46 3 -59 15 -59 8 0 15 9 15 20 0 13 5 18 15 14 21 -8
45 14 45 41 0 29 -17 42 -57 43 l-33 1 0 -60z m56 5 c-5 -13 -10 -14 -18 -6
-6 6 -8 18 -4 28 5 13 10 14 18 6 6 -6 8 -18 4 -28z"/>
<path d="M1087 279 c-21 -34 -37 -66 -37 -72 0 -5 -21 -43 -46 -85 -31 -52
-42 -78 -35 -85 6 -6 12 -9 14 -6 9 9 94 155 118 200 32 61 38 67 49 49 10
-16 -7 -43 -21 -34 -5 3 -9 -37 -9 -90 0 -79 3 -96 15 -96 12 0 15 14 16 63 1
34 1 77 0 95 -2 17 1 32 6 32 5 0 17 -15 26 -32 10 -18 28 -51 42 -73 14 -22
33 -55 42 -72 16 -31 43 -45 43 -23 0 5 -18 39 -40 75 -22 36 -40 70 -40 75 0
27 -81 140 -100 140 -4 0 -23 -28 -43 -61z"/>
</g>
</svg>
